<?xml version="1.0" encoding="UTF-8"?>
<!DOCTYPE svg PUBLIC "-//W3C//DTD SVG 1.1//EN" "http://www.w3.org/Graphics/SVG/1.1/DTD/svg11.dtd">
<!-- Creator: CorelDRAW X7 -->
<svg xmlns="http://www.w3.org/2000/svg" xml:space="preserve" width="125.084mm" height="103.42mm" version="1.1" style="shape-rendering:geometricPrecision; text-rendering:geometricPrecision; image-rendering:optimizeQuality; fill-rule:evenodd; clip-rule:evenodd"
viewBox="0 0 17400 14386"
 xmlns:xlink="http://www.w3.org/1999/xlink">
 <defs>
  <style type="text/css">
   <![CDATA[
    .str1 {stroke:#E6E7E8;stroke-width:27.8214}
    .str0 {stroke:#D2D3D5;stroke-width:27.8214}
    .str2 {stroke:#A9ABAE;stroke-width:27.8214}
    .str3 {stroke:#A8518A;stroke-width:27.8214}
    .str4 {stroke:#FEFEFE;stroke-width:10.6}
    .fil7 {fill:none}
    .fil12 {fill:none;fill-rule:nonzero}
    .fil1 {fill:#E6E7E8}
    .fil0 {fill:#D2D3D5}
    .fil2 {fill:#A9ABAE}
    .fil8 {fill:#175969}
    .fil4 {fill:#2F798C}
    .fil10 {fill:#407D8F}
    .fil3 {fill:#437E8E}
    .fil9 {fill:#4A8799}
    .fil5 {fill:#4D889A}
    .fil6 {fill:#81AABA}
    .fil13 {fill:#FEFEFE;fill-rule:nonzero}
    .fil11 {fill:#A8518A;fill-rule:nonzero}
   ]]>
  </style>
 </defs>
 <g id="Camada_x0020_1">
  <metadata id="CorelCorpID_0Corel-Layer"/>
  <rect class="fil0 str0" x="14" y="14" width="1881" height="14359"/>
  <rect class="fil1 str1" x="1898" y="14" width="15488" height="14359"/>
  <rect class="fil2 str2" x="14" y="14" width="1881" height="458"/>
  <rect class="fil2 str2" x="14" y="13915" width="1881" height="458"/>
  <rect class="fil2 str2" x="17231" y="1877" width="155" height="3007"/>
  <rect class="fil2 str2" x="17231" y="9433" width="155" height="3007"/>
  <g id="_2082824295696">
   <path class="fil3" d="M6488 1351c41,-10 77,-15 109,-15 81,0 133,32 156,96 -173,-31 -285,5 -337,108l-24 81 -24 -81 120 -189zm337 108c155,-26 358,-29 457,135l0 0 -120 27c-83,0 -376,9 -337,-162l0 0z"/>
   <path class="fil4" d="M6584 1513c596,124 1182,336 1710,674l0 0 -313 27c-433,-275 -960,-308 -1445,-269l0 0 -168 27c17,-179 79,-355 216,-459l0 0z"/>
   <path class="fil5" d="M6873 1567l458 135 -121 27c-83,0 -376,9 -337,-162l0 0z"/>
   <polygon class="fil3" points="6343,1675 6368,1756 6271,2025 6368,2403 6271,2349 6223,1864 "/>
   <path class="fil5" d="M7403 1729l409 189 -72 27c-98,-12 -372,-39 -337,-216l0 0zm-1011 54l24 81 -48 108 48 269 -48 0 -49 -323 73 -135z"/>
   <path class="fil6" d="M6440 1945l96 0c469,-25 958,13 1397,215l0 0 72 -27 -24 81c272,-72 441,-27 505,135 468,770 862,1623 1180,2561 162,-268 427,-420 794,-458 -88,-63 -64,-126 73,-189 206,-398 624,-559 1252,-485l48 215 168 135 -24 81 169 135 -217 296 -506 513 -601 997 -121 81 -289 431 626 647 -24 189 -144 -54 -24 135 240 377 -168 81 -72 -27c136,110 156,313 144,486l0 0 -72 27 -289 -216 -120 189 192 107 -24 81 -217 -188 24 -81c-126,14 -247,-32 -264,-189l0 0 -723 -1186c-216,-19 -302,-202 -289,-432l0 0 97 -215c-100,-62 -72,-224 -48,-324l0 0 96 0 -96 -485 337 -539 -121 -27c-107,314 -401,393 -674,377l0 0 -385 -539 -169 -135 -24 -81 -120 -80 -24 -81 -120 -81 -24 -81 -313 -297 -25 -80 -264 -243 -24 -81 -73 -27c-285,-306 -510,-677 -674,-1078l0 0 24 -81 -120 -27c-91,-131 -66,-312 -24,-458l0 0z"/>
   <path class="fil3" d="M8077 1945c684,235 1269,718 1613,1428l0 0 72 135 72 27 217 297 121 81 72 134 72 27 -24 81 -843 -889 -72 -135 -72 -27 -72 -135c-296,-452 -689,-817 -1156,-1024l0 0z"/>
   <path class="fil5" d="M8125 2052c643,422 1211,979 1661,1645l0 0 -1083 -1159c-223,-82 -493,-217 -578,-486l0 0z"/>
   <line class="fil7" x1="8414" y1="2160" x2="8607" y2= "2430" />
   <line class="fil7" x1="8462" y1="2160" x2="8944" y2= "2753" />
   <polygon class="fil5" points="6440,2322 6608,2672 6464,2565 "/>
   <path class="fil4" d="M8510 2376l1324 1375 25 81 601 620c-367,38 -632,190 -794,458 -342,-964 -728,-1809 -1156,-2534zm-2022 54l120 27 0 108 24 80 73 -26 0 107 72 135 72 -27 0 108 -24 81 -337 -593z"/>
   <polygon class="fil3" points="6536,2753 7331,3805 7162,3832 6801,3697 6969,3670 7114,3724 7138,3643 6969,3400 6801,3266 6777,3185 6705,3158 "/>
   <polygon class="fil5" points="6632,2753 7234,3535 6849,3158 "/>
   <line class="fil7" x1="8992" y1="2753" x2="9570" y2= "3454" />
   <polygon class="fil3" points="5188,3293 5501,3320 5164,3373 5140,3454 5116,3373 "/>
   <line class="fil7" x1="6969" y1="3293" x2="7258" y2= "3670" />
   <line class="fil7" x1="9521" y1="3293" x2="9955" y2= "3832" />
   <path class="fil8" d="M5236 3346c289,-25 624,2 843,243l0 0 -73 -27 -216 27 578 324 -73 27c-110,-124 -251,-209 -400,-260 -218,-73 -604,11 -731,-253l0 0 72 -81z"/>
   <path class="fil4" d="M5284 3400l458 135 -121 27c-83,0 -376,9 -337,-162l0 0z"/>
   <path class="fil9" d="M7066 3454l313 405 -72 27c95,-194 -112,-351 -241,-432l0 0z"/>
   <path class="fil4" d="M5814 3562c583,221 1193,345 1806,405l0 0 264 350 73 27 72 135 72 27 72 134 72 27 121 189 120 81 -120 27c-647,-259 -1272,-588 -1854,-997l0 0 -481 -270c-63,-3 -254,-13 -217,-135l0 0z"/>
   <path class="fil5" d="M7307 3616l216 297 -72 27c-125,-59 -212,-171 -144,-324l0 0z"/>
   <path class="fil3" d="M11255 3616l505 27c-234,-42 -541,-51 -698,189l0 0 97 -162 96 -54z"/>
   <path class="fil9" d="M11255 3670c177,-56 477,-134 602,81l0 0 -72 -27c-168,-56 -452,-139 -578,54l0 0 48 -108z"/>
   <path class="fil5" d="M11303 3724l457 27 -457 27 0 -54zm-1444 54l577 539 73 -27 -121 81 -529 -593z"/>
   <path class="fil8" d="M11881 3778c234,306 626,350 963,323l0 0 1324 189 -24 81c-590,192 -1230,154 -1830,54l0 0 0 -54c457,41 924,34 1372,-81l0 0 -650 -81c-163,48 -236,-51 -373,-49 -292,4 -647,-44 -782,-382l0 0z"/>
   <polygon class="fil3" points="10918,3832 10990,3859 10581,4155 10677,3993 "/>
   <path class="fil4" d="M11833 3832c501,483 1226,522 1853,458l0 0 -890 81c-665,-80 -1067,136 -1204,647 155,-108 203,-216 144,-324 49,90 97,72 145,-54l72 -26c-137,-107 27,-202 120,-243l0 0 73 27 -121 -189 -72 -27c108,-77 6,-153 -72,-189l0 0 -72 -26 24 -135z"/>
   <polygon class="fil10" points="10147,3993 10460,4290 10388,4317 "/>
   <path class="fil8" d="M6584 4047l1806 944 -72 27c-610,-242 -1202,-555 -1734,-971l0 0z"/>
   <path class="fil5" d="M12218 4425l-96 162 -650 566c-264,559 -603,1073 -1012,1509l0 0 578 593 -265 -242 -361 -351 361 -512 73 -27 698 -1105 674 -593z"/>
   <polygon class="fil9" points="12314,4425 12772,4452 12314,4479 "/>
   <polygon class="fil3" points="12796,4425 14024,4452 12796,4479 "/>
   <line class="fil7" x1="12218" y1="4479" x2="12025" y2= "4748" />
   <path class="fil3" d="M12266 4479l217 27c-162,11 -324,78 -410,242l0 0 193 -269z"/>
   <line class="fil7" x1="11929" y1="4748" x2="11688" y2= "5072" />
   <polygon class="fil3" points="11977,4748 12001,4829 11736,5072 "/>
   <polygon class="fil5" points="8414,4964 8679,5207 8871,5476 8799,5503 8462,5018 "/>
   <polygon class="fil4" points="9473,5018 9594,5045 9233,5611 8823,5422 "/>
   <path class="fil3" d="M11640 5072l24 81 -144 108 -361 673 -73 27 -481 701 481 432c134,107 122,325 97,485l0 0 -73 27 -24 -81 49 -108 -121 -296 -72 -27 -24 -81 -409 -351 24 -81 120 -80 987 -1429zm-2985 323c77,145 215,220 361,243l0 0 -72 27 -313 -189 24 -81z"/>
   <path class="fil8" d="M8896 5503l312 135 -72 -27c-80,11 -236,23 -240,-108l0 0z"/>
   <polygon class="fil4" points="9281,5719 9353,6069 9257,6069 9305,6501 9160,6608 "/>
   <line class="fil7" x1="11014" y1="5988" x2="10677" y2= "6420" />
   <polygon class="fil5" points="9184,6635 9305,6986 9257,6986 "/>
   <path class="fil4" d="M9281 6797l1107 1618 145 54 96 -162 120 81 -48 161 48 162 -120 27 -241 -215c19,129 21,303 -96,377l0 0 -72 -27 -121 -189 -96 54c-349,-588 -584,-1253 -722,-1941l0 0z"/>
   <polygon class="fil9" points="10677,6797 10942,7040 10870,7067 "/>
   <path class="fil10" d="M10918 7067c156,31 186,197 168,350l0 0 -48 0c10,-119 12,-314 -120,-350l0 0z"/>
   <polygon class="fil9" points="11110,7390 11135,7471 11062,7606 10990,7633 11014,7714 10942,7579 11086,7471 "/>
   <path class="fil8" d="M9473 7498l530 1240 72 27 -72 135c-309,-392 -502,-878 -530,-1402l0 0z"/>
   <path class="fil3" d="M11014 7606c176,42 228,223 217,404l0 0 -72 189 -73 27 97 216 -169 242 -120 27 -24 81 -73 -27 73 -135 216 -81 -48 -377 97 -54 48 -162 -169 -350z"/>
   <path class="fil5" d="M10966 7714l169 242 -73 135 -168 27c140,58 159,232 144,378l0 0 -120 80 -121 -80c20,100 33,249 -72,296l0 0 -361 -189 24 -80c38,179 190,228 337,215l0 0 24 -135 -48 -161 121 -27 144 108 24 -189 -144 -324 72 27 168 -81 -120 -242z"/>
   <polygon class="fil9" points="10966,8091 11062,8091 11135,8118 11038,8172 11086,8334 10990,8280 "/>
   <polygon class="fil10" points="10436,8630 10701,8819 10629,8846 "/>
   <path class="fil3" d="M10484 8738l193 162 96 -54 0 54 -96 54 -193 -216zm-385 54l145 216 120 -27 72 -135 24 81c-22,109 -106,141 -192,141 -25,0 -49,-2 -72,-6l0 0 -97 -162 -72 27 72 -135z"/>
  </g>
  <g>
   <path class="fil11" d="M6612 13454l-3463 0 1299 -1584 -1299 -1584 2597 0 866 3168zm0 -792l0 792 -866 -792 866 0zm6926 -2376l2597 0 -1299 1584 1299 1584 -3463 0 866 -3168zm0 2376l-866 792 0 -792 866 0zm-7792 -3168l7792 0 0 3168 -7792 0 0 -3168 0 0z"/>
   <path id="1" class="fil12 str3" d="M6612 13454l-3463 0 1299 -1584 -1299 -1584 2597 0m866 2376l0 792 -866 -792m7792 -2376l2597 0 -1299 1584 1299 1584 -3463 0m866 -792l-866 792 0 -792m-6926 -3168l7792 0 0 3168 -7792 0 0 -3168zm-866 3960m-1082 -792m0 -1584m650 -792m2164 2772m-433 0m8657 -2772m649 792m0 1584m-1082 792m-1298 -396m-433 0m-3030 -3564m3896 1584m-3896 1584m-3896 -1584"/>
  </g>
  <path class="fil13" d="M7363 10646l0 -526 138 0c90,0 159,21 205,64 46,44 69,107 69,192 0,40 -7,77 -20,111 -13,33 -31,61 -55,85 -25,24 -54,42 -88,55 -35,13 -74,19 -117,19l-132 0zm49 -481l0 437 81 0c36,0 68,-5 97,-15 28,-10 53,-24 72,-43 20,-19 35,-42 46,-70 10,-28 15,-60 15,-96 0,-142 -75,-213 -225,-213l-86 0z"/>
  <path id="1" class="fil13" d="M8062 10646l-48 0 -192 -526 55 0 149 420c3,8 5,16 7,24 2,8 4,16 5,25l2 0c1,-7 3,-15 5,-23 2,-8 5,-17 8,-26l156 -420 53 0 -200 526z"/>
  <path id="2" class="fil13" d="M8341 10646l0 -526 138 0c90,0 158,21 204,64 46,44 69,107 69,192 0,40 -6,77 -19,111 -13,33 -31,61 -56,85 -24,24 -53,42 -88,55 -34,13 -73,19 -116,19l-132 0zm49 -481l0 437 80 0c37,0 69,-5 98,-15 28,-10 52,-24 72,-43 20,-19 35,-42 45,-70 11,-28 16,-60 16,-96 0,-142 -75,-213 -225,-213l-86 0z"/>
  <polygon id="3" class="fil13" points="9064,10646 9064,10120 9321,10120 9321,10165 9113,10165 9113,10357 9305,10357 9305,10402 9113,10402 9113,10602 9332,10602 9332,10646 "/>
  <path id="4" class="fil13" d="M9907 10646l0 -221c0,-23 -2,-42 -5,-57 -3,-16 -9,-29 -16,-38 -7,-10 -16,-17 -27,-22 -12,-4 -25,-6 -40,-6 -14,0 -27,3 -39,9 -12,7 -23,16 -32,27 -9,12 -17,25 -22,40 -5,16 -8,33 -8,50l0 218 -47 0 0 -226c0,-79 -30,-118 -90,-118 -14,0 -27,3 -39,9 -12,6 -23,15 -32,26 -8,11 -15,25 -20,41 -5,16 -8,33 -8,52l0 216 -47 0 0 -376 47 0 0 61 2 0c26,-47 65,-70 115,-70 13,0 26,2 38,6 11,4 22,10 31,17 10,7 17,16 24,26 7,10 12,21 16,33 13,-27 30,-47 51,-61 21,-14 45,-21 72,-21 82,0 123,51 123,153l0 232 -47 0z"/>
  <path id="5" class="fil13" d="M10540 10646l0 -221c0,-23 -2,-42 -5,-57 -4,-16 -9,-29 -16,-38 -7,-10 -17,-17 -28,-22 -11,-4 -24,-6 -39,-6 -14,0 -27,3 -39,9 -12,7 -23,16 -32,27 -10,12 -17,25 -22,40 -5,16 -8,33 -8,50l0 218 -47 0 0 -226c0,-79 -30,-118 -91,-118 -14,0 -26,3 -38,9 -12,6 -23,15 -32,26 -9,11 -16,25 -21,41 -5,16 -7,33 -7,52l0 216 -47 0 0 -376 47 0 0 61 1 0c27,-47 65,-70 116,-70 13,0 26,2 38,6 11,4 22,10 31,17 9,7 17,16 24,26 7,10 12,21 15,33 14,-27 31,-47 52,-61 21,-14 45,-21 72,-21 82,0 123,51 123,153l0 232 -47 0z"/>
  <path id="6" class="fil13" d="M10724 10175c-9,0 -17,-3 -24,-9 -7,-7 -10,-15 -10,-25 0,-9 3,-17 10,-23 7,-7 15,-10 24,-10 4,0 9,1 13,3 4,1 8,4 11,6 3,3 5,7 7,11 2,4 3,8 3,13 0,5 -1,9 -3,14 -1,4 -4,7 -7,10 -3,4 -7,6 -11,8 -4,1 -8,2 -13,2zm-24 471l0 -376 48 0 0 376 -48 0z"/>
  <path id="7" class="fil13" d="M11304 10255c0,-17 -2,-32 -7,-45 -5,-12 -12,-23 -21,-32 -10,-9 -21,-15 -33,-19 -13,-5 -27,-7 -42,-7 -24,0 -46,5 -68,17 -22,11 -42,26 -61,44l0 -52c18,-16 39,-28 61,-37 22,-9 46,-13 74,-13 5,0 9,0 13,0 4,1 8,2 12,2 18,2 34,7 49,14 15,7 28,17 38,28 11,12 19,25 25,41 5,16 8,34 8,53 0,23 -3,43 -9,61 -5,18 -14,34 -25,49 -11,15 -24,29 -39,43 -15,13 -32,26 -51,40 -21,15 -39,29 -54,40 -15,12 -28,23 -38,33 -10,11 -17,22 -22,32 -5,11 -9,22 -10,35 -1,4 -2,7 -2,11 -1,3 -1,7 -1,11l262 0 0 42 -312 0 0 -25c0,-24 3,-44 9,-61 5,-18 14,-34 25,-49 12,-15 27,-30 46,-45 18,-15 40,-32 66,-50 17,-13 32,-25 46,-37 13,-12 25,-24 34,-37 9,-12 15,-26 20,-40 5,-14 7,-30 7,-47z"/>
  <path id="8" class="fil13" d="M11493 10654c-10,0 -19,-4 -25,-11 -7,-6 -11,-15 -11,-25 0,-10 4,-18 10,-25 7,-7 16,-10 26,-10 5,0 9,1 13,3 5,2 8,4 11,7 4,3 6,7 8,11 2,5 3,9 3,14 0,5 -1,10 -3,14 -2,4 -4,8 -8,11 -3,3 -6,6 -11,8 -4,2 -8,3 -13,3z"/>
  <path id="9" class="fil13" d="M11865 10255c0,-17 -2,-32 -7,-45 -5,-12 -12,-23 -21,-32 -10,-9 -20,-15 -33,-19 -13,-5 -27,-7 -42,-7 -24,0 -46,5 -68,17 -22,11 -42,26 -61,44l0 -52c18,-16 39,-28 61,-37 22,-9 47,-13 74,-13 5,0 9,0 13,0 4,1 8,2 12,2 18,2 34,7 49,14 15,7 28,17 38,28 11,12 19,25 25,41 5,16 8,34 8,53 0,23 -3,43 -8,61 -6,18 -15,34 -26,49 -10,15 -24,29 -39,43 -15,13 -32,26 -51,40 -21,15 -39,29 -54,40 -15,12 -28,23 -38,33 -9,11 -17,22 -22,32 -5,11 -8,22 -10,35 -1,4 -2,7 -2,11 -1,3 -1,7 -1,11l262 0 0 42 -312 0 0 -25c0,-24 3,-44 9,-61 5,-18 14,-34 26,-49 11,-15 26,-30 45,-45 18,-15 40,-32 66,-50 17,-13 32,-25 46,-37 13,-12 25,-24 34,-37 9,-12 16,-26 20,-40 5,-14 7,-30 7,-47z"/>
  <path id="10" class="fil13" d="M7962 12070c9,6 19,12 29,18 11,5 22,9 33,13 11,3 22,6 33,8 12,2 22,3 33,3 39,0 69,-8 89,-23 20,-16 30,-38 30,-67 0,-14 -3,-26 -7,-36 -5,-11 -12,-20 -22,-30 -10,-9 -22,-18 -37,-26 -15,-9 -33,-20 -53,-31 -22,-12 -42,-24 -58,-35 -16,-10 -29,-22 -39,-33 -10,-11 -18,-24 -22,-37 -5,-13 -7,-28 -7,-45 0,-21 4,-40 13,-57 9,-17 21,-32 37,-44 15,-11 33,-21 54,-27 21,-6 43,-9 66,-9 42,0 76,5 104,17l0 54c-31,-18 -67,-27 -109,-27 -16,0 -31,2 -44,6 -14,3 -26,9 -37,16 -10,8 -18,17 -24,28 -6,11 -9,23 -9,38 0,14 2,25 6,35 4,10 10,20 19,28 9,9 21,18 35,27 15,8 33,18 54,30 22,11 41,23 57,34 17,11 31,23 41,35 11,12 19,25 25,38 5,14 8,29 8,46 0,23 -4,43 -13,61 -9,17 -20,32 -36,43 -15,12 -34,20 -55,26 -21,6 -45,9 -70,9 -8,0 -18,-1 -30,-2 -11,-1 -23,-3 -35,-6 -11,-2 -22,-6 -33,-9 -11,-4 -19,-8 -26,-12l0 -57z"/>
  <path id="11" class="fil13" d="M8385 11676c-9,0 -17,-3 -24,-9 -6,-7 -10,-15 -10,-25 0,-9 4,-17 10,-23 7,-7 15,-10 24,-10 5,0 9,1 13,3 4,1 8,4 11,6 3,3 6,7 7,11 2,4 3,8 3,13 0,5 -1,9 -2,14 -2,4 -5,7 -8,10 -3,4 -7,6 -11,8 -4,1 -8,2 -13,2zm-23 471l0 -376 47 0 0 376 -47 0z"/>
  <path id="12" class="fil13" d="M8793 12147l0 -66 -1 0c-13,24 -31,42 -54,55 -23,14 -49,20 -79,20 -23,0 -45,-4 -64,-13 -19,-9 -36,-21 -49,-38 -14,-16 -25,-36 -32,-59 -8,-24 -11,-50 -11,-79 0,-31 4,-58 12,-84 8,-25 20,-46 35,-64 15,-18 33,-32 54,-42 22,-10 45,-15 71,-15 54,0 93,22 117,65l1 0 0 -237 47 0 0 557 -47 0zm0 -227c0,-17 -3,-32 -8,-46 -6,-14 -14,-27 -24,-37 -10,-11 -22,-19 -36,-25 -14,-6 -30,-9 -47,-9 -18,0 -36,3 -51,11 -16,7 -30,18 -41,31 -11,14 -19,31 -26,51 -6,20 -9,42 -9,68 0,23 3,45 8,64 6,19 14,34 24,47 11,13 23,23 38,30 14,7 30,10 48,10 19,0 36,-3 52,-10 15,-7 28,-16 39,-28 10,-12 19,-26 24,-42 6,-17 9,-34 9,-52l0 -63z"/>
  <path id="13" class="fil13" d="M9300 11962l124 185 -57 0 -76 -124c-3,-5 -6,-10 -9,-15 -3,-5 -7,-10 -10,-16l-1 0c-1,3 -3,6 -6,10 -2,4 -5,9 -9,15l-82 130 -56 0 127 -184 -123 -192 55 0 78 132c4,6 7,12 10,18 3,5 6,9 8,13l1 0c3,-5 6,-10 9,-14 3,-5 5,-10 8,-15l83 -134 53 0 -127 191z"/>
  <path id="14" class="fil13" d="M9474 12000c0,-14 2,-28 7,-42 4,-14 10,-27 18,-39 9,-12 19,-23 31,-33 12,-9 26,-17 42,-23 -23,-12 -42,-29 -56,-49 -14,-21 -21,-43 -21,-68 0,-20 3,-37 10,-54 8,-16 18,-30 30,-42 13,-12 28,-22 46,-28 17,-7 36,-10 56,-10 21,0 40,3 58,10 17,7 32,16 45,28 13,12 23,26 30,43 7,16 10,34 10,53 0,12 -2,24 -5,36 -4,11 -9,22 -16,32 -6,10 -15,19 -24,27 -9,8 -20,16 -31,22 15,6 29,14 41,23 12,10 22,21 30,33 8,12 15,25 19,39 4,14 6,28 6,42 0,24 -4,45 -12,64 -8,20 -19,36 -33,49 -15,14 -32,24 -52,32 -20,7 -42,10 -66,10 -24,0 -46,-3 -65,-10 -20,-8 -37,-18 -52,-32 -14,-13 -26,-29 -34,-48 -8,-20 -12,-41 -12,-65zm51 -1c0,18 2,33 8,48 5,14 13,26 23,36 10,10 21,17 35,23 14,5 29,8 46,8 16,0 31,-3 45,-8 14,-6 26,-14 36,-24 10,-9 17,-21 23,-35 6,-15 9,-30 9,-48 0,-15 -3,-30 -8,-44 -6,-14 -14,-26 -23,-36 -10,-11 -22,-19 -36,-25 -13,-6 -29,-9 -46,-9 -16,0 -31,3 -45,9 -14,5 -25,13 -35,23 -10,10 -18,22 -24,36 -6,14 -8,30 -8,46zm18 -250c0,13 2,26 7,37 5,12 12,22 20,31 9,8 19,15 30,20 12,5 24,8 37,8 13,0 26,-3 37,-8 12,-5 22,-12 30,-20 9,-9 16,-19 21,-31 5,-12 7,-24 7,-37 0,-14 -2,-27 -7,-39 -5,-11 -12,-22 -20,-30 -9,-9 -19,-16 -30,-21 -12,-4 -24,-7 -38,-7 -14,0 -26,3 -38,8 -12,5 -22,12 -30,20 -9,9 -15,19 -20,31 -4,12 -6,24 -6,38z"/>
  <path id="15" class="fil13" d="M10200 11980c0,26 -4,49 -12,71 -8,21 -19,40 -33,55 -15,16 -32,28 -51,37 -20,9 -42,13 -65,13 -26,0 -48,-5 -68,-16 -20,-11 -37,-26 -51,-47 -14,-20 -24,-45 -32,-75 -7,-30 -11,-64 -11,-103 0,-45 5,-87 15,-124 9,-38 23,-70 41,-96 18,-27 40,-47 66,-62 26,-14 55,-21 88,-21 32,0 59,4 81,13l0 47c-25,-13 -53,-19 -81,-19 -25,0 -47,6 -67,17 -20,12 -37,28 -51,50 -14,21 -25,46 -32,76 -8,30 -12,63 -12,99l2 0c25,-52 67,-77 126,-77 22,0 42,4 60,12 18,8 34,19 47,33 13,15 23,32 29,52 7,20 11,41 11,65zm-48 7c0,-19 -3,-37 -8,-53 -5,-15 -12,-29 -21,-40 -10,-11 -21,-20 -35,-26 -13,-6 -28,-9 -46,-9 -16,0 -31,3 -45,9 -14,7 -26,15 -36,26 -10,11 -18,23 -23,37 -6,14 -9,29 -9,44 0,19 3,37 8,54 6,17 13,32 23,44 10,13 22,23 35,31 14,7 30,11 46,11 16,0 31,-3 45,-10 13,-6 25,-15 35,-26 9,-12 17,-25 23,-41 5,-15 8,-32 8,-51z"/>
  <polygon id="16" class="fil13" points="10231,12251 10231,12212 10543,12212 10543,12251 "/>
  <path id="17" class="fil13" d="M10908 11980c0,26 -4,49 -12,71 -8,21 -19,40 -33,55 -14,16 -31,28 -51,37 -20,9 -41,13 -65,13 -25,0 -48,-5 -68,-16 -20,-11 -37,-26 -51,-47 -13,-20 -24,-45 -31,-75 -8,-30 -11,-64 -11,-103 0,-45 5,-87 14,-124 10,-38 24,-70 42,-96 18,-27 40,-47 66,-62 25,-14 55,-21 87,-21 32,0 60,4 82,13l0 47c-26,-13 -53,-19 -82,-19 -24,0 -47,6 -67,17 -20,12 -37,28 -51,50 -13,21 -24,46 -32,76 -7,30 -11,63 -11,99l1 0c26,-52 68,-77 126,-77 23,0 43,4 61,12 18,8 33,19 46,33 13,15 23,32 30,52 7,20 10,41 10,65zm-48 7c0,-19 -2,-37 -7,-53 -5,-15 -13,-29 -22,-40 -9,-11 -21,-20 -34,-26 -14,-6 -29,-9 -46,-9 -17,0 -32,3 -45,9 -14,7 -26,15 -36,26 -10,11 -18,23 -24,37 -6,14 -8,29 -8,44 0,19 2,37 8,54 5,17 13,32 23,44 9,13 21,23 35,31 14,7 29,11 46,11 16,0 31,-3 44,-10 14,-6 25,-15 35,-26 10,-12 17,-25 23,-41 5,-15 8,-32 8,-51z"/>
  <path id="18" class="fil13" d="M11253 11621l0 353 82 0 0 43 -82 0 0 130 -46 0 0 -130 -250 0 0 -43c23,-26 47,-55 71,-85 24,-30 47,-60 69,-91 21,-31 41,-62 60,-92 18,-30 34,-59 46,-85l50 0zm-46 353l0 -278c-18,31 -36,60 -54,88 -18,27 -35,52 -52,75 -17,23 -33,44 -48,63 -16,19 -30,37 -42,52l196 0z"/>
  <path id="19" class="fil12 str4" d="M7363 10646l0 -526 138 0c90,0 159,21 205,64 46,44 69,107 69,192 0,40 -7,77 -20,111 -13,33 -31,61 -55,85 -25,24 -54,42 -88,55 -35,13 -74,19 -117,19l-132 0zm49 -481l0 437 81 0c36,0 68,-5 97,-15 28,-10 53,-24 72,-43 20,-19 35,-42 46,-70 10,-28 15,-60 15,-96 0,-142 -75,-213 -225,-213l-86 0z"/>
  <path id="20" class="fil12 str4" d="M8062 10646l-48 0 -192 -526 55 0 149 420c3,8 5,16 7,24 2,8 4,16 5,25l2 0c1,-7 3,-15 5,-23 2,-8 5,-17 8,-26l156 -420 53 0 -200 526z"/>
  <path id="21" class="fil12 str4" d="M8341 10646l0 -526 138 0c90,0 158,21 204,64 46,44 69,107 69,192 0,40 -6,77 -19,111 -13,33 -31,61 -56,85 -24,24 -53,42 -88,55 -34,13 -73,19 -116,19l-132 0zm49 -481l0 437 80 0c37,0 69,-5 98,-15 28,-10 52,-24 72,-43 20,-19 35,-42 45,-70 11,-28 16,-60 16,-96 0,-142 -75,-213 -225,-213l-86 0z"/>
  <polygon id="22" class="fil12 str4" points="9064,10646 9064,10120 9321,10120 9321,10165 9113,10165 9113,10357 9305,10357 9305,10402 9113,10402 9113,10602 9332,10602 9332,10646 "/>
  <path id="23" class="fil12 str4" d="M9907 10646l0 -221c0,-23 -2,-42 -5,-57 -3,-16 -9,-29 -16,-38 -7,-10 -16,-17 -27,-22 -12,-4 -25,-6 -40,-6 -14,0 -27,3 -39,9 -12,7 -23,16 -32,27 -9,12 -17,25 -22,40 -5,16 -8,33 -8,50l0 218 -47 0 0 -226c0,-79 -30,-118 -90,-118 -14,0 -27,3 -39,9 -12,6 -23,15 -32,26 -8,11 -15,25 -20,41 -5,16 -8,33 -8,52l0 216 -47 0 0 -376 47 0 0 61 2 0c26,-47 65,-70 115,-70 13,0 26,2 38,6 11,4 22,10 31,17 10,7 17,16 24,26 7,10 12,21 16,33 13,-27 30,-47 51,-61 21,-14 45,-21 72,-21 82,0 123,51 123,153l0 232 -47 0z"/>
  <path id="24" class="fil12 str4" d="M10540 10646l0 -221c0,-23 -2,-42 -5,-57 -4,-16 -9,-29 -16,-38 -7,-10 -17,-17 -28,-22 -11,-4 -24,-6 -39,-6 -14,0 -27,3 -39,9 -12,7 -23,16 -32,27 -10,12 -17,25 -22,40 -5,16 -8,33 -8,50l0 218 -47 0 0 -226c0,-79 -30,-118 -91,-118 -14,0 -26,3 -38,9 -12,6 -23,15 -32,26 -9,11 -16,25 -21,41 -5,16 -7,33 -7,52l0 216 -47 0 0 -376 47 0 0 61 1 0c27,-47 65,-70 116,-70 13,0 26,2 38,6 11,4 22,10 31,17 9,7 17,16 24,26 7,10 12,21 15,33 14,-27 31,-47 52,-61 21,-14 45,-21 72,-21 82,0 123,51 123,153l0 232 -47 0z"/>
  <path id="25" class="fil12 str4" d="M10724 10175c-9,0 -17,-3 -24,-9 -7,-7 -10,-15 -10,-25 0,-9 3,-17 10,-23 7,-7 15,-10 24,-10 4,0 9,1 13,3 4,1 8,4 11,6 3,3 5,7 7,11 2,4 3,8 3,13 0,5 -1,9 -3,14 -1,4 -4,7 -7,10 -3,4 -7,6 -11,8 -4,1 -8,2 -13,2zm-24 471l0 -376 48 0 0 376 -48 0z"/>
  <path id="26" class="fil12 str4" d="M11304 10255c0,-17 -2,-32 -7,-45 -5,-12 -12,-23 -21,-32 -10,-9 -21,-15 -33,-19 -13,-5 -27,-7 -42,-7 -24,0 -46,5 -68,17 -22,11 -42,26 -61,44l0 -52c18,-16 39,-28 61,-37 22,-9 46,-13 74,-13 5,0 9,0 13,0 4,1 8,2 12,2 18,2 34,7 49,14 15,7 28,17 38,28 11,12 19,25 25,41 5,16 8,34 8,53 0,23 -3,43 -9,61 -5,18 -14,34 -25,49 -11,15 -24,29 -39,43 -15,13 -32,26 -51,40 -21,15 -39,29 -54,40 -15,12 -28,23 -38,33 -10,11 -17,22 -22,32 -5,11 -9,22 -10,35 -1,4 -2,7 -2,11 -1,3 -1,7 -1,11l262 0 0 42 -312 0 0 -25c0,-24 3,-44 9,-61 5,-18 14,-34 25,-49 12,-15 27,-30 46,-45 18,-15 40,-32 66,-50 17,-13 32,-25 46,-37 13,-12 25,-24 34,-37 9,-12 15,-26 20,-40 5,-14 7,-30 7,-47z"/>
  <path id="27" class="fil12 str4" d="M11493 10654c-10,0 -19,-4 -25,-11 -7,-6 -11,-15 -11,-25 0,-10 4,-18 10,-25 7,-7 16,-10 26,-10 5,0 9,1 13,3 5,2 8,4 11,7 4,3 6,7 8,11 2,5 3,9 3,14 0,5 -1,10 -3,14 -2,4 -4,8 -8,11 -3,3 -6,6 -11,8 -4,2 -8,3 -13,3z"/>
  <path id="28" class="fil12 str4" d="M11865 10255c0,-17 -2,-32 -7,-45 -5,-12 -12,-23 -21,-32 -10,-9 -20,-15 -33,-19 -13,-5 -27,-7 -42,-7 -24,0 -46,5 -68,17 -22,11 -42,26 -61,44l0 -52c18,-16 39,-28 61,-37 22,-9 47,-13 74,-13 5,0 9,0 13,0 4,1 8,2 12,2 18,2 34,7 49,14 15,7 28,17 38,28 11,12 19,25 25,41 5,16 8,34 8,53 0,23 -3,43 -8,61 -6,18 -15,34 -26,49 -10,15 -24,29 -39,43 -15,13 -32,26 -51,40 -21,15 -39,29 -54,40 -15,12 -28,23 -38,33 -9,11 -17,22 -22,32 -5,11 -8,22 -10,35 -1,4 -2,7 -2,11 -1,3 -1,7 -1,11l262 0 0 42 -312 0 0 -25c0,-24 3,-44 9,-61 5,-18 14,-34 26,-49 11,-15 26,-30 45,-45 18,-15 40,-32 66,-50 17,-13 32,-25 46,-37 13,-12 25,-24 34,-37 9,-12 16,-26 20,-40 5,-14 7,-30 7,-47z"/>
  <path id="29" class="fil12 str4" d="M7962 12070c9,6 19,12 29,18 11,5 22,9 33,13 11,3 22,6 33,8 12,2 22,3 33,3 39,0 69,-8 89,-23 20,-16 30,-38 30,-67 0,-14 -3,-26 -7,-36 -5,-11 -12,-20 -22,-30 -10,-9 -22,-18 -37,-26 -15,-9 -33,-20 -53,-31 -22,-12 -42,-24 -58,-35 -16,-10 -29,-22 -39,-33 -10,-11 -18,-24 -22,-37 -5,-13 -7,-28 -7,-45 0,-21 4,-40 13,-57 9,-17 21,-32 37,-44 15,-11 33,-21 54,-27 21,-6 43,-9 66,-9 42,0 76,5 104,17l0 54c-31,-18 -67,-27 -109,-27 -16,0 -31,2 -44,6 -14,3 -26,9 -37,16 -10,8 -18,17 -24,28 -6,11 -9,23 -9,38 0,14 2,25 6,35 4,10 10,20 19,28 9,9 21,18 35,27 15,8 33,18 54,30 22,11 41,23 57,34 17,11 31,23 41,35 11,12 19,25 25,38 5,14 8,29 8,46 0,23 -4,43 -13,61 -9,17 -20,32 -36,43 -15,12 -34,20 -55,26 -21,6 -45,9 -70,9 -8,0 -18,-1 -30,-2 -11,-1 -23,-3 -35,-6 -11,-2 -22,-6 -33,-9 -11,-4 -19,-8 -26,-12l0 -57z"/>
  <path id="30" class="fil12 str4" d="M8385 11676c-9,0 -17,-3 -24,-9 -6,-7 -10,-15 -10,-25 0,-9 4,-17 10,-23 7,-7 15,-10 24,-10 5,0 9,1 13,3 4,1 8,4 11,6 3,3 6,7 7,11 2,4 3,8 3,13 0,5 -1,9 -2,14 -2,4 -5,7 -8,10 -3,4 -7,6 -11,8 -4,1 -8,2 -13,2zm-23 471l0 -376 47 0 0 376 -47 0z"/>
  <path id="31" class="fil12 str4" d="M8793 12147l0 -66 -1 0c-13,24 -31,42 -54,55 -23,14 -49,20 -79,20 -23,0 -45,-4 -64,-13 -19,-9 -36,-21 -49,-38 -14,-16 -25,-36 -32,-59 -8,-24 -11,-50 -11,-79 0,-31 4,-58 12,-84 8,-25 20,-46 35,-64 15,-18 33,-32 54,-42 22,-10 45,-15 71,-15 54,0 93,22 117,65l1 0 0 -237 47 0 0 557 -47 0zm0 -227c0,-17 -3,-32 -8,-46 -6,-14 -14,-27 -24,-37 -10,-11 -22,-19 -36,-25 -14,-6 -30,-9 -47,-9 -18,0 -36,3 -51,11 -16,7 -30,18 -41,31 -11,14 -19,31 -26,51 -6,20 -9,42 -9,68 0,23 3,45 8,64 6,19 14,34 24,47 11,13 23,23 38,30 14,7 30,10 48,10 19,0 36,-3 52,-10 15,-7 28,-16 39,-28 10,-12 19,-26 24,-42 6,-17 9,-34 9,-52l0 -63z"/>
  <path id="32" class="fil12 str4" d="M9300 11962l124 185 -57 0 -76 -124c-3,-5 -6,-10 -9,-15 -3,-5 -7,-10 -10,-16l-1 0c-1,3 -3,6 -6,10 -2,4 -5,9 -9,15l-82 130 -56 0 127 -184 -123 -192 55 0 78 132c4,6 7,12 10,18 3,5 6,9 8,13l1 0c3,-5 6,-10 9,-14 3,-5 5,-10 8,-15l83 -134 53 0 -127 191z"/>
  <path id="33" class="fil12 str4" d="M9474 12000c0,-14 2,-28 7,-42 4,-14 10,-27 18,-39 9,-12 19,-23 31,-33 12,-9 26,-17 42,-23 -23,-12 -42,-29 -56,-49 -14,-21 -21,-43 -21,-68 0,-20 3,-37 10,-54 8,-16 18,-30 30,-42 13,-12 28,-22 46,-28 17,-7 36,-10 56,-10 21,0 40,3 58,10 17,7 32,16 45,28 13,12 23,26 30,43 7,16 10,34 10,53 0,12 -2,24 -5,36 -4,11 -9,22 -16,32 -6,10 -15,19 -24,27 -9,8 -20,16 -31,22 15,6 29,14 41,23 12,10 22,21 30,33 8,12 15,25 19,39 4,14 6,28 6,42 0,24 -4,45 -12,64 -8,20 -19,36 -33,49 -15,14 -32,24 -52,32 -20,7 -42,10 -66,10 -24,0 -46,-3 -65,-10 -20,-8 -37,-18 -52,-32 -14,-13 -26,-29 -34,-48 -8,-20 -12,-41 -12,-65zm51 -1c0,18 2,33 8,48 5,14 13,26 23,36 10,10 21,17 35,23 14,5 29,8 46,8 16,0 31,-3 45,-8 14,-6 26,-14 36,-24 10,-9 17,-21 23,-35 6,-15 9,-30 9,-48 0,-15 -3,-30 -8,-44 -6,-14 -14,-26 -23,-36 -10,-11 -22,-19 -36,-25 -13,-6 -29,-9 -46,-9 -16,0 -31,3 -45,9 -14,5 -25,13 -35,23 -10,10 -18,22 -24,36 -6,14 -8,30 -8,46zm18 -250c0,13 2,26 7,37 5,12 12,22 20,31 9,8 19,15 30,20 12,5 24,8 37,8 13,0 26,-3 37,-8 12,-5 22,-12 30,-20 9,-9 16,-19 21,-31 5,-12 7,-24 7,-37 0,-14 -2,-27 -7,-39 -5,-11 -12,-22 -20,-30 -9,-9 -19,-16 -30,-21 -12,-4 -24,-7 -38,-7 -14,0 -26,3 -38,8 -12,5 -22,12 -30,20 -9,9 -15,19 -20,31 -4,12 -6,24 -6,38z"/>
  <path id="34" class="fil12 str4" d="M10200 11980c0,26 -4,49 -12,71 -8,21 -19,40 -33,55 -15,16 -32,28 -51,37 -20,9 -42,13 -65,13 -26,0 -48,-5 -68,-16 -20,-11 -37,-26 -51,-47 -14,-20 -24,-45 -32,-75 -7,-30 -11,-64 -11,-103 0,-45 5,-87 15,-124 9,-38 23,-70 41,-96 18,-27 40,-47 66,-62 26,-14 55,-21 88,-21 32,0 59,4 81,13l0 47c-25,-13 -53,-19 -81,-19 -25,0 -47,6 -67,17 -20,12 -37,28 -51,50 -14,21 -25,46 -32,76 -8,30 -12,63 -12,99l2 0c25,-52 67,-77 126,-77 22,0 42,4 60,12 18,8 34,19 47,33 13,15 23,32 29,52 7,20 11,41 11,65zm-48 7c0,-19 -3,-37 -8,-53 -5,-15 -12,-29 -21,-40 -10,-11 -21,-20 -35,-26 -13,-6 -28,-9 -46,-9 -16,0 -31,3 -45,9 -14,7 -26,15 -36,26 -10,11 -18,23 -23,37 -6,14 -9,29 -9,44 0,19 3,37 8,54 6,17 13,32 23,44 10,13 22,23 35,31 14,7 30,11 46,11 16,0 31,-3 45,-10 13,-6 25,-15 35,-26 9,-12 17,-25 23,-41 5,-15 8,-32 8,-51z"/>
  <polygon id="35" class="fil12 str4" points="10231,12251 10231,12212 10543,12212 10543,12251 "/>
  <path id="36" class="fil12 str4" d="M10908 11980c0,26 -4,49 -12,71 -8,21 -19,40 -33,55 -14,16 -31,28 -51,37 -20,9 -41,13 -65,13 -25,0 -48,-5 -68,-16 -20,-11 -37,-26 -51,-47 -13,-20 -24,-45 -31,-75 -8,-30 -11,-64 -11,-103 0,-45 5,-87 14,-124 10,-38 24,-70 42,-96 18,-27 40,-47 66,-62 25,-14 55,-21 87,-21 32,0 60,4 82,13l0 47c-26,-13 -53,-19 -82,-19 -24,0 -47,6 -67,17 -20,12 -37,28 -51,50 -13,21 -24,46 -32,76 -7,30 -11,63 -11,99l1 0c26,-52 68,-77 126,-77 23,0 43,4 61,12 18,8 33,19 46,33 13,15 23,32 30,52 7,20 10,41 10,65zm-48 7c0,-19 -2,-37 -7,-53 -5,-15 -13,-29 -22,-40 -9,-11 -21,-20 -34,-26 -14,-6 -29,-9 -46,-9 -17,0 -32,3 -45,9 -14,7 -26,15 -36,26 -10,11 -18,23 -24,37 -6,14 -8,29 -8,44 0,19 2,37 8,54 5,17 13,32 23,44 9,13 21,23 35,31 14,7 29,11 46,11 16,0 31,-3 44,-10 14,-6 25,-15 35,-26 10,-12 17,-25 23,-41 5,-15 8,-32 8,-51z"/>
  <path id="37" class="fil12 str4" d="M11253 11621l0 353 82 0 0 43 -82 0 0 130 -46 0 0 -130 -250 0 0 -43c23,-26 47,-55 71,-85 24,-30 47,-60 69,-91 21,-31 41,-62 60,-92 18,-30 34,-59 46,-85l50 0zm-46 353l0 -278c-18,31 -36,60 -54,88 -18,27 -35,52 -52,75 -17,23 -33,44 -48,63 -16,19 -30,37 -42,52l196 0z"/>
 </g>
</svg>
