<?xml version="1.0" standalone="no"?><!-- Generator: Gravit.io --><svg xmlns="http://www.w3.org/2000/svg" xmlns:xlink="http://www.w3.org/1999/xlink" style="isolation:isolate" viewBox="0 0 39 11" width="39" height="11"><defs><clipPath id="_clipPath_VBRIi96jTdTdoE5SlJgOTyfcxwOy4qgx"><rect width="39" height="11"/></clipPath></defs><g clip-path="url(#_clipPath_VBRIi96jTdTdoE5SlJgOTyfcxwOy4qgx)"><g id="Grupo"><g id="Grupo"><g id="Grupo"><g id="Grupo"><path d=" M 0.006 0 L 39 0.006 L 38.994 11 L 0 10.994 L 0.006 0 Z " fill="rgb(254,254,254)"/><path d=" M 5.042 0.25 L 5.179 0.256 C 5.029 0.261 4.879 0.277 4.732 0.309 L 4.732 0.309 L 4.69 0.291 C 4.769 0.268 4.85 0.262 4.931 0.261 C 4.959 0.26 5.024 0.282 5.042 0.25 L 5.042 0.25 Z " fill="rgb(33,0,12)"/><path d=" M 4.386 0.321 L 4.475 0.327 L 4.284 0.434 L 4.326 0.44 C 4.39 0.359 4.531 0.441 4.608 0.453 C 4.673 0.463 4.739 0.46 4.803 0.452 L 4.803 0.452 L 4.893 0.434 C 4.854 0.385 4.784 0.381 4.726 0.386 L 4.726 0.386 L 4.887 0.381 Q 4.962 0.371 4.988 0.41 Q 4.847 0.501 4.63 0.517 L 4.875 0.523 C 4.97 0.489 5.073 0.477 5.173 0.476 L 5.173 0.476 L 5.352 0.511 L 5.358 0.482 L 5.346 0.434 L 5.376 0.428 Q 5.966 0.584 6.462 0.832 Q 6.571 0.768 6.761 0.785 Q 6.851 0.796 6.898 0.85 Q 6.908 0.929 6.963 0.963 L 7.178 1.106 L 7.184 1.088 L 7.047 0.939 Q 7.507 1.183 7.853 1.54 Q 8.402 2.045 8.652 2.848 L 8.628 2.836 L 8.563 2.735 L 8.557 2.824 C 8.583 2.883 8.586 2.951 8.58 3.015 L 8.58 3.015 L 8.569 3.038 C 8.673 3.272 8.736 3.523 8.771 3.776 L 8.771 3.776 L 8.759 3.776 C 8.682 3.406 8.551 3.044 8.348 2.723 L 8.348 2.723 L 8.312 2.783 Q 8.196 2.75 8.163 2.801 Q 8.155 2.98 8.24 3.068 L 8.258 3.062 L 8.288 3.021 C 8.373 3.06 8.386 3.157 8.378 3.241 L 8.378 3.241 L 8.461 3.633 L 8.443 3.627 L 8.413 3.609 L 8.336 3.484 L 8.318 3.49 C 8.341 3.623 8.389 3.753 8.473 3.859 L 8.473 3.859 L 8.425 3.895 L 8.413 3.978 C 8.406 4.058 8.413 4.154 8.479 4.21 L 8.479 4.21 L 8.551 4.198 L 8.557 4.239 C 8.459 4.404 8.422 4.598 8.413 4.786 L 8.413 4.786 L 8.437 4.905 L 8.425 4.905 L 8.336 4.662 L 8.33 4.858 Q 8.378 4.894 8.342 5.012 Q 8.327 5.165 8.264 5.268 L 8.258 5.25 Q 8.338 5.092 8.318 4.834 Q 8.294 4.792 8.27 4.846 Q 8.276 5.167 8.145 5.351 Q 7.998 5.526 7.978 5.827 L 7.96 5.821 L 7.87 5.696 C 7.752 5.76 7.734 5.902 7.745 6.023 L 7.745 6.023 L 7.745 6.047 C 7.749 6.11 7.738 6.183 7.679 6.219 L 7.679 6.219 L 7.662 6.214 C 7.702 6.18 7.695 6.116 7.685 6.071 L 7.685 6.071 L 7.668 6.077 Q 7.355 6.42 6.94 6.659 Q 6.464 6.988 5.675 7.004 Q 5.111 6.983 4.696 6.814 L 4.791 6.921 Q 5.227 7.224 6.015 7.177 Q 5.789 7.279 5.424 7.242 Q 4.429 7.056 3.879 6.428 L 3.711 6.178 L 3.729 6.172 L 3.855 6.285 L 4.171 6.636 L 4.278 6.707 L 4.129 6.546 L 3.998 6.368 L 4.016 6.362 C 4.19 6.571 4.413 6.735 4.66 6.85 L 4.66 6.85 L 4.678 6.772 Q 4.303 6.51 3.998 6.178 Q 3.538 5.744 3.544 4.846 Q 3.523 4.581 3.628 4.442 Q 3.72 4.094 3.92 3.853 L 3.998 3.788 Q 4.103 3.565 4.29 3.425 Q 4.641 3.096 5.34 3.116 Q 5.954 3.218 6.277 3.609 L 6.337 3.692 L 6.319 3.686 Q 5.98 3.346 5.317 3.33 Q 4.566 3.408 4.201 3.871 Q 3.84 4.237 3.843 4.965 L 3.867 4.953 L 3.884 4.911 Q 3.945 5.85 4.529 6.267 Q 4.926 6.662 5.687 6.695 Q 5.972 6.676 6.176 6.576 Q 6.194 6.618 6.212 6.588 Q 6.579 6.49 6.784 6.231 L 6.79 6.249 L 6.683 6.368 L 6.713 6.374 C 6.972 6.221 7.208 6.031 7.411 5.809 L 7.411 5.809 L 7.435 5.69 C 7.407 5.674 7.416 5.632 7.423 5.607 L 7.423 5.607 L 7.489 5.47 L 7.638 5.393 C 7.732 5.213 7.777 5.011 7.793 4.81 L 7.793 4.81 L 7.781 4.81 L 7.715 4.947 L 7.709 4.905 C 7.819 4.542 7.819 4.151 7.781 3.776 L 7.781 3.776 L 7.745 3.752 Q 7.567 2.514 6.761 1.903 Q 6.113 1.258 4.791 1.284 Q 4.458 1.303 4.219 1.415 L 4.243 1.379 L 4.439 1.314 L 4.433 1.296 Q 4.095 1.316 3.873 1.451 Q 3.659 1.606 3.377 1.695 L 3.407 1.701 L 3.598 1.653 L 3.604 1.671 C 3.502 1.778 3.37 1.753 3.239 1.78 C 3.029 1.825 2.835 1.918 2.709 2.099 L 2.709 2.099 L 2.739 2.105 L 2.834 2.057 L 2.84 2.075 L 2.763 2.176 Q 2.425 2.202 2.261 2.402 Q 2.008 2.583 1.802 2.812 Q 1.556 3.061 1.36 3.359 L 1.444 3.383 Q 1.351 3.689 1.181 3.918 Q 1.038 4.138 1.038 4.501 Q 0.955 5.019 0.955 5.619 Q 0.957 5.867 1.038 6.035 Q 1.115 6.089 1.098 6.237 Q 1.042 6.283 1.074 6.416 L 1.181 6.642 L 1.134 6.654 Q 1.192 6.911 1.343 7.076 Q 1.537 7.09 1.623 7.212 Q 1.752 7.376 1.814 7.605 L 1.796 7.611 C 1.733 7.588 1.678 7.548 1.641 7.492 L 1.641 7.492 L 1.635 7.522 C 1.697 7.689 1.783 7.848 1.897 7.985 L 1.897 7.985 L 1.838 8.057 C 1.87 8.123 1.917 8.183 1.975 8.229 L 1.975 8.229 L 2.053 8.283 L 2.047 8.301 L 1.975 8.277 L 1.969 8.318 C 2.084 8.539 2.225 8.746 2.393 8.931 L 2.393 8.931 L 2.44 8.859 C 2.482 9.048 2.569 9.228 2.715 9.359 L 2.715 9.359 L 2.876 9.365 C 2.952 9.525 3.112 9.658 3.282 9.71 L 3.282 9.71 L 3.21 9.829 Q 3.373 9.863 3.473 9.959 Q 3.579 10.056 3.741 10.096 L 3.747 10.078 L 3.688 9.971 L 3.705 9.965 L 4.016 10.286 C 4.214 10.462 4.466 10.536 4.724 10.566 C 4.884 10.585 5.041 10.614 5.191 10.673 L 5.191 10.673 L 4.982 10.679 Q 4.327 10.69 3.873 10.501 Q 2.751 10.09 2.017 9.294 Q 1.402 8.669 0.991 7.843 Q 0.323 6.664 0.442 4.703 Q 0.477 4.679 0.453 4.596 L 0.453 4.311 L 0.418 4.121 C 0.547 3.665 0.713 3.219 0.925 2.795 L 0.925 2.795 L 0.985 2.806 L 1.05 2.753 Q 1.23 2.469 1.354 2.129 Q 1.399 2.138 1.408 2.111 Q 1.544 1.771 1.82 1.57 L 2.321 1.118 L 2.333 1.201 C 2.812 0.813 3.37 0.533 3.956 0.345 L 3.956 0.345 L 3.95 0.363 L 3.938 0.386 L 4.052 0.392 L 4.386 0.321 Z " fill="rgb(242,9,125)"/><path d=" M 26.619 0.511 C 26.662 0.508 26.698 0.525 26.702 0.571 L 26.702 0.571 L 26.893 0.761 L 27.639 1.504 L 27.651 1.528 L 26.642 2.545 L 26.326 2.242 L 25.813 1.718 L 25.682 1.588 C 25.639 1.581 25.63 1.542 25.634 1.504 L 25.634 1.504 L 26.619 0.511 Z " fill="rgb(242,9,125)"/><path d=" M 21.726 0.892 L 21.756 0.898 C 21.668 2.176 21.636 3.458 21.648 4.739 L 21.648 4.739 L 21.66 4.739 Q 21.852 4.091 22.287 3.686 Q 22.653 3.321 23.384 3.318 Q 24.136 3.384 24.524 3.811 Q 25.318 4.739 25.204 6.57 Q 25.123 8.522 24.065 9.502 Q 23.342 10.202 21.833 10.12 Q 20.934 10.089 20.276 9.817 Q 20.435 9.339 20.419 8.687 L 20.419 7.486 L 20.419 3.348 Q 20.353 3.294 20.407 3.122 Q 20.413 2.705 20.371 2.337 Q 20.36 1.729 20.043 1.427 L 19.942 1.374 C 20.557 1.32 21.176 1.182 21.726 0.892 L 21.726 0.892 Z " fill="rgb(0,0,0)"/><path d=" M 14.935 0.916 L 14.953 0.922 Q 14.796 2.294 14.81 3.835 Q 14.777 5.652 14.798 7.522 Q 14.771 8.976 15.132 10.043 L 15.043 10.049 Q 14.718 9.998 14.327 10.013 Q 14.291 10.061 14.172 10.025 L 13.646 10.049 L 13.629 9.412 Q 13.645 9.194 13.611 9.026 Q 13.464 9.522 13.109 9.811 Q 12.724 10.14 11.964 10.096 Q 11.216 9.973 10.836 9.484 Q 9.976 8.379 10.084 6.309 Q 10.13 4.755 10.914 3.936 Q 11.517 3.295 12.787 3.318 Q 13.259 3.341 13.623 3.472 L 13.629 2.432 Q 13.666 1.687 13.306 1.338 Q 14.263 1.268 14.935 0.916 Z " fill="rgb(0,0,0)"/><path d=" M 0.65 2.474 L 0.674 2.509 L 0.734 2.497 L 0.752 2.527 L 0.698 2.676 L 0.579 2.747 L 0.585 2.729 C 0.635 2.655 0.65 2.562 0.65 2.474 L 0.65 2.474 Z " fill="rgb(242,9,125)"/><path d=" M 35.211 3.235 L 35.229 3.241 L 35.235 4.483 C 35.355 4.122 35.578 3.766 35.904 3.555 C 36.218 3.352 36.61 3.299 36.977 3.306 C 37.36 3.314 37.753 3.409 38.034 3.681 C 38.358 3.993 38.438 4.503 38.439 4.929 L 38.439 4.929 L 38.439 6.332 L 38.439 8.532 C 38.405 9.038 38.429 9.567 38.618 10.043 L 38.618 10.043 L 38.517 10.049 Q 38.082 9.971 37.55 9.989 Q 37.514 10.037 37.395 10.001 L 37.013 10.049 L 37.007 10.019 Q 37.14 9.694 37.126 9.222 Q 37.176 8.677 37.162 8.069 L 37.162 5.714 Q 37.103 5.666 37.15 5.512 Q 37.158 5.248 37.126 5.024 Q 37.089 4.616 36.834 4.424 Q 36.654 4.282 36.333 4.281 Q 35.833 4.301 35.611 4.596 Q 35.177 5.211 35.253 6.332 Q 35.209 6.592 35.241 6.927 L 35.241 8.473 C 35.216 8.998 35.242 9.532 35.372 10.043 L 35.372 10.043 L 35.271 10.049 Q 34.853 9.977 34.34 10.001 Q 34.316 10.037 34.232 10.013 Q 34 10.007 33.815 10.049 L 33.809 10.031 Q 33.968 9.725 33.952 9.246 Q 34.021 9.189 33.964 9.008 Q 33.998 8.816 33.976 8.568 Q 33.934 8.431 33.988 8.39 L 34 5.845 C 33.972 5.828 33.981 5.787 33.988 5.762 L 33.988 5.762 L 33.988 5.536 C 33.992 5.253 33.974 4.973 33.964 4.691 C 33.951 4.319 33.923 3.941 33.66 3.651 L 33.66 3.651 L 33.618 3.621 L 33.624 3.603 C 34.168 3.598 34.734 3.512 35.211 3.235 L 35.211 3.235 Z " fill="rgb(0,0,0)"/><path d=" M 27.406 3.246 L 27.424 3.252 Q 27.251 4.156 27.317 5.298 Q 27.287 5.762 27.305 6.273 L 27.305 8.485 C 27.28 9.009 27.322 9.559 27.543 10.043 L 27.543 10.043 L 27.466 10.049 Q 27.075 9.963 26.571 9.989 Q 26.52 10.052 26.356 10.001 L 25.843 10.049 L 25.837 10.031 Q 26.008 9.743 26.016 9.294 Q 26.063 8.835 26.052 8.318 Q 26.11 6.991 26.076 5.571 Q 26.049 5.556 26.064 5.5 L 26.064 5.298 L 26.04 4.572 C 26.049 4.261 25.993 3.916 25.747 3.698 L 25.747 3.698 L 25.682 3.657 L 25.688 3.639 C 26.276 3.615 26.876 3.512 27.406 3.246 L 27.406 3.246 Z " fill="rgb(0,0,0)"/><path d=" M 0.448 3.27 L 0.465 3.276 C 0.449 3.4 0.421 3.523 0.376 3.639 L 0.376 3.639 L 0.358 3.633 L 0.37 3.585 C 0.321 3.548 0.344 3.466 0.358 3.419 L 0.358 3.419 L 0.448 3.27 Z " fill="rgb(242,9,125)"/><path d=" M 17.764 3.306 Q 18.856 3.282 19.357 3.847 Q 20.067 4.703 19.965 6.368 Q 19.921 6.401 19.953 6.511 Q 19.965 6.713 19.936 6.874 L 16.707 6.879 Q 16.68 8.197 17.37 8.8 Q 17.872 9.251 18.885 9.192 Q 19.53 9.133 19.936 8.836 L 19.942 8.877 Q 19.811 9.342 19.816 9.942 Q 19.067 10.177 18.026 10.12 Q 16.794 10.022 16.17 9.317 Q 15.323 8.337 15.395 6.439 Q 15.423 4.678 16.355 3.817 Q 16.855 3.358 17.764 3.306 Z " fill="rgb(0,0,0)"/><path d=" M 30.461 3.318 Q 31.729 3.262 32.293 3.906 Q 32.656 4.353 32.627 5.191 L 32.627 6.677 C 32.588 6.706 32.604 6.77 32.615 6.808 L 32.615 6.808 L 32.615 7.165 L 32.615 8.604 Q 32.675 8.651 32.627 8.806 Q 32.617 9.077 32.651 9.305 Q 32.663 9.781 32.89 10.043 L 32.741 10.049 Q 32.458 9.998 32.108 10.013 Q 32.072 10.061 31.953 10.025 L 31.464 10.049 Q 31.4 9.464 31.416 8.8 Q 31.198 9.38 30.772 9.751 Q 30.348 10.144 29.483 10.096 Q 28.85 10.025 28.546 9.626 Q 28.084 9.088 28.08 8.092 Q 28.088 6.929 28.731 6.398 Q 29.484 5.775 30.939 5.851 Q 30.963 5.886 31.046 5.863 L 31.392 5.886 L 31.398 5.345 Q 31.395 4.76 31.094 4.471 Q 30.838 4.256 30.354 4.269 Q 29.263 4.341 28.671 4.911 Q 28.553 4.322 28.295 3.871 Q 29.143 3.36 30.461 3.318 Z " fill="rgb(0,0,0)"/><path d=" M 17.668 4.115 Q 18.193 4.097 18.414 4.382 Q 18.812 4.907 18.76 5.881 Q 18.716 5.914 18.742 6.017 L 16.684 6.011 Q 16.639 4.849 17.203 4.293 Q 17.377 4.146 17.668 4.115 Z  M 12.728 4.198 Q 13.269 4.199 13.593 4.418 Q 13.621 4.961 13.605 5.548 Q 13.563 5.577 13.593 5.678 L 13.593 6.035 L 13.581 7.438 Q 13.631 8.363 13.205 8.812 Q 13 9.018 12.572 9.002 Q 12.156 8.959 11.946 8.711 Q 11.25 7.799 11.373 6.071 Q 11.404 4.978 12 4.448 Q 12.262 4.222 12.728 4.198 Z " fill-rule="evenodd" fill="rgb(254,254,254)"/><path d=" M 6.617 4.424 L 6.659 4.43 C 6.688 4.496 6.683 4.574 6.671 4.644 L 6.671 4.644 L 6.641 4.685 C 6.584 4.638 6.573 4.559 6.576 4.489 L 6.576 4.489 L 6.617 4.424 Z " fill="rgb(242,9,125)"/><path d=" M 22.704 4.448 Q 23.17 4.43 23.379 4.668 Q 24.035 5.488 23.904 7.094 Q 23.874 8.366 23.217 9.014 Q 22.89 9.336 22.239 9.335 Q 21.946 9.324 21.708 9.258 Q 21.655 8.08 21.684 6.82 Q 21.692 6.263 21.779 5.785 Q 21.859 5.027 22.299 4.626 Q 22.454 4.49 22.704 4.448 Z " fill="rgb(254,254,254)"/><path d=" M 8.527 4.947 L 8.533 5.012 C 8.479 5.35 8.378 5.684 8.205 5.982 L 8.205 5.982 L 8.199 5.964 C 8.366 5.647 8.468 5.299 8.527 4.947 L 8.527 4.947 Z  M 6.522 5.066 L 6.528 5.084 C 6.493 5.246 6.428 5.403 6.319 5.53 L 6.319 5.53 L 6.283 5.482 Q 6.227 5.479 6.206 5.441 Q 6.238 5.241 6.367 5.137 L 6.385 5.143 L 6.283 5.339 C 6.244 5.358 6.238 5.402 6.241 5.441 L 6.241 5.441 L 6.259 5.435 L 6.373 5.381 L 6.522 5.066 Z  M 5.746 5.732 L 5.824 5.738 L 5.704 5.845 Q 5.688 5.894 5.615 5.886 Q 5.421 5.872 5.311 5.774 Q 5.34 5.726 5.448 5.756 Q 5.629 5.776 5.746 5.732 Z  M 3.622 5.756 L 3.64 5.762 C 3.736 5.867 3.792 6.003 3.819 6.142 L 3.819 6.142 L 3.807 6.142 C 3.722 6.026 3.66 5.894 3.622 5.756 L 3.622 5.756 Z  M 3.491 5.994 L 3.509 5.999 L 3.831 6.558 L 3.813 6.564 Q 3.655 6.425 3.544 6.237 Q 3.45 6.195 3.473 6.035 L 3.491 5.994 Z " fill-rule="evenodd" fill="rgb(242,9,125)"/><path d=" M 30.533 6.6 L 31.422 6.606 Q 31.425 7.133 31.374 7.605 Q 31.29 8.407 30.807 8.812 Q 30.567 9.036 30.091 9.026 Q 29.77 8.989 29.596 8.806 Q 29.278 8.451 29.31 7.748 Q 29.342 7.162 29.698 6.897 Q 30.011 6.645 30.533 6.6 Z " fill="rgb(254,254,254)"/></g></g></g></g></g></svg>