<?xml version="1.0" standalone="no"?><!-- Generator: Gravit.io --><svg xmlns="http://www.w3.org/2000/svg" xmlns:xlink="http://www.w3.org/1999/xlink" style="isolation:isolate" viewBox="0 0 80 70" width="80" height="70"><defs><clipPath id="_clipPath_7mPgpG1QI8jiAbqvaK1rGOZLT3qRFhkV"><rect width="80" height="70"/></clipPath></defs><g clip-path="url(#_clipPath_7mPgpG1QI8jiAbqvaK1rGOZLT3qRFhkV)"><g id="emmisvg"><path d=" M 12.128 0.15 C 12.493 0.075 12.785 0 13.078 0 C 13.808 0 14.247 0.299 14.466 0.898 C 12.932 0.599 11.982 0.898 11.47 1.872 L 11.251 2.545 L 11.032 1.872 L 12.128 0.15 Z  M 15.123 1.123 C 16.511 0.898 18.265 0.824 19.142 2.321 L 19.142 2.321 L 18.046 2.545 C 17.315 2.62 14.758 2.695 15.123 1.123 L 15.123 1.123 Z " fill-rule="evenodd" fill="rgb(67,126,142)"/><path d=" M 13.005 1.572 C 18.265 2.695 23.452 4.642 28.055 7.711 L 28.055 7.711 L 25.279 7.936 C 21.479 5.465 16.804 5.166 12.566 5.54 L 12.566 5.54 L 11.032 5.765 C 11.178 4.118 11.763 2.545 13.005 1.572 L 13.005 1.572 Z " fill-rule="evenodd" fill="rgb(47,121,140)"/><path d=" M 15.562 2.096 L 19.58 3.294 L 18.484 3.594 C 17.753 3.594 15.196 3.668 15.562 2.096 L 15.562 2.096 Z " fill-rule="evenodd" fill="rgb(77,136,154)"/><path d=" M 10.813 3.07 L 11.032 3.818 L 10.228 6.214 L 11.032 9.658 L 10.228 9.209 L 9.79 4.791 L 10.813 3.07 Z " fill-rule="evenodd" fill="rgb(67,126,142)"/><path d=" M 20.237 3.594 L 23.817 5.241 L 23.16 5.54 C 22.356 5.39 19.872 5.166 20.237 3.594 L 20.237 3.594 Z  M 11.251 4.043 L 11.47 4.791 L 11.032 5.765 L 11.47 8.16 L 11.032 8.16 L 10.667 5.241 L 11.251 4.043 Z " fill-rule="evenodd" fill="rgb(77,136,154)"/><path d=" M 11.689 5.54 L 12.566 5.54 C 16.731 5.316 21.041 5.615 24.913 7.487 L 24.913 7.487 L 25.498 7.187 L 25.279 7.936 C 27.689 7.337 29.224 7.711 29.808 9.209 C 33.9 16.171 37.406 23.882 40.183 32.342 C 41.644 29.947 43.982 28.524 47.196 28.225 C 46.466 27.626 46.685 27.102 47.854 26.503 C 49.68 22.909 53.406 21.412 58.959 22.086 L 59.324 24.032 L 60.858 25.305 L 60.639 25.979 L 62.1 27.251 L 60.201 29.947 L 55.744 34.588 L 50.411 43.572 L 49.388 44.321 L 46.831 48.214 L 52.311 54.053 L 52.091 55.775 L 50.849 55.326 L 50.63 56.524 L 52.749 59.968 L 51.288 60.642 L 50.63 60.417 C 51.872 61.39 52.018 63.262 51.872 64.834 L 51.872 64.834 L 51.288 65.059 L 48.731 63.112 L 47.635 64.834 L 49.388 65.807 L 49.169 66.556 L 47.196 64.834 L 47.416 64.086 C 46.32 64.235 45.224 63.786 45.078 62.364 L 45.078 62.364 L 38.721 51.658 C 36.822 51.508 36.018 49.786 36.164 47.765 L 36.164 47.765 L 37.041 45.818 C 36.164 45.219 36.384 43.722 36.603 42.824 L 36.603 42.824 L 37.406 42.824 L 36.603 38.481 L 39.598 33.615 L 38.502 33.316 C 37.553 36.16 34.995 36.909 32.511 36.759 L 32.511 36.759 L 29.151 31.893 L 27.689 30.62 L 27.47 29.947 L 26.374 29.198 L 26.155 28.449 L 25.132 27.701 L 24.913 27.027 L 22.137 24.332 L 21.918 23.583 L 19.58 21.412 L 19.361 20.663 L 18.703 20.364 C 16.219 17.594 14.247 14.299 12.785 10.631 L 12.785 10.631 L 13.005 9.882 L 11.909 9.658 C 11.105 8.46 11.324 6.813 11.689 5.54 L 11.689 5.54 Z " fill-rule="evenodd" fill="rgb(129,170,186)"/><path d=" M 26.155 5.54 C 32.219 7.636 37.406 11.979 40.402 18.417 L 40.402 18.417 L 41.059 19.69 L 41.717 19.914 L 43.616 22.61 L 44.639 23.358 L 45.297 24.556 L 45.954 24.781 L 45.735 25.529 L 38.283 17.444 L 37.626 16.246 L 37.041 16.021 L 36.384 14.749 C 33.753 10.706 30.32 7.412 26.155 5.54 L 26.155 5.54 Z " fill-rule="evenodd" fill="rgb(67,126,142)"/><path d=" M 26.594 6.513 C 32.292 10.332 37.26 15.348 41.279 21.412 L 41.279 21.412 L 31.708 10.856 C 29.735 10.107 27.324 8.909 26.594 6.513 L 26.594 6.513 Z " fill-rule="evenodd" fill="rgb(77,136,154)"/><line x1="29.151" y1="7.487" x2="30.831" y2="9.882"/><line x1="29.589" y1="7.487" x2="33.826" y2="12.802"/><path d=" M 11.689 8.909 L 13.224 12.128 L 11.909 11.155 L 11.689 8.909 Z " fill-rule="evenodd" fill="rgb(77,136,154)"/><path d=" M 30.027 9.433 L 41.717 21.861 L 41.936 22.61 L 47.196 28.225 C 43.982 28.524 41.644 29.947 40.183 32.342 C 37.187 23.658 33.753 15.947 30.027 9.433 Z  M 12.128 9.882 L 13.224 10.182 L 13.224 11.155 L 13.37 11.829 L 14.027 11.604 L 14.027 12.578 L 14.685 13.775 L 15.342 13.551 L 15.342 14.524 L 15.123 15.273 L 12.128 9.882 Z " fill-rule="evenodd" fill="rgb(47,121,140)"/><path d=" M 12.566 12.802 L 19.58 22.385 L 18.046 22.61 L 14.904 21.412 L 16.365 21.112 L 17.68 21.636 L 17.9 20.888 L 16.365 18.717 L 14.904 17.444 L 14.685 16.77 L 14.027 16.471 L 12.566 12.802 Z " fill-rule="evenodd" fill="rgb(67,126,142)"/><path d=" M 13.37 12.802 L 18.703 19.914 L 15.342 16.471 L 13.37 12.802 Z " fill-rule="evenodd" fill="rgb(77,136,154)"/><line x1="34.265" y1="12.802" x2="39.379" y2="19.166"/><path d=" M 0.658 17.743 L 3.434 17.968 L 0.438 18.417 L 0.219 19.166 L 0 18.417 L 0.658 17.743 Z " fill-rule="evenodd" fill="rgb(67,126,142)"/><line x1="16.365" y1="17.743" x2="18.922" y2="21.112"/><line x1="38.941" y1="17.743" x2="42.74" y2="22.61"/><path d=" M 1.096 18.193 C 3.653 17.968 6.575 18.193 8.475 20.364 L 8.475 20.364 L 7.89 20.139 L 5.991 20.364 L 11.032 23.358 L 10.447 23.583 C 9.425 22.46 8.183 21.711 6.868 21.262 C 4.968 20.588 1.534 21.337 0.438 18.941 L 0.438 18.941 L 1.096 18.193 Z " fill-rule="evenodd" fill="rgb(23,89,105)"/><path d=" M 1.461 18.717 L 5.553 19.914 L 4.457 20.139 C 3.726 20.139 1.169 20.214 1.461 18.717 L 1.461 18.717 Z " fill-rule="evenodd" fill="rgb(47,121,140)"/><path d=" M 17.242 19.166 L 20.018 22.834 L 19.361 23.059 C 20.237 21.337 18.411 19.914 17.242 19.166 L 17.242 19.166 Z " fill-rule="evenodd" fill="rgb(74,135,153)"/><path d=" M 6.137 20.139 C 11.324 22.16 16.731 23.283 22.137 23.807 L 22.137 23.807 L 24.475 27.027 L 25.132 27.251 L 25.717 28.449 L 26.374 28.674 L 27.032 29.947 L 27.689 30.171 L 28.712 31.893 L 29.808 32.642 L 28.712 32.866 C 23.014 30.471 17.461 27.551 12.347 23.807 L 12.347 23.807 L 8.11 21.412 C 7.525 21.337 5.845 21.262 6.137 20.139 L 6.137 20.139 Z " fill-rule="evenodd" fill="rgb(47,121,140)"/><path d=" M 19.361 20.663 L 21.26 23.358 L 20.603 23.583 C 19.507 23.059 18.776 22.011 19.361 20.663 L 19.361 20.663 Z " fill-rule="evenodd" fill="rgb(77,136,154)"/><path d=" M 54.21 20.663 L 58.74 20.888 C 56.621 20.513 53.918 20.439 52.53 22.61 L 52.53 22.61 L 53.406 21.112 L 54.21 20.663 Z " fill-rule="evenodd" fill="rgb(67,126,142)"/><path d=" M 54.21 21.112 C 55.817 20.663 58.447 19.914 59.543 21.861 L 59.543 21.861 L 58.959 21.636 C 57.425 21.112 54.941 20.364 53.845 22.086 L 53.845 22.086 L 54.21 21.112 Z " fill-rule="evenodd" fill="rgb(74,135,153)"/><path d=" M 54.648 21.636 L 58.74 21.861 L 54.648 22.086 L 54.648 21.636 Z  M 41.936 22.086 L 46.977 27.027 L 47.635 26.727 L 46.612 27.476 L 41.936 22.086 Z " fill-rule="evenodd" fill="rgb(77,136,154)"/><path d=" M 59.763 22.086 C 61.881 24.856 65.315 25.305 68.311 25.005 L 68.311 25.005 L 80 26.727 L 79.781 27.476 C 74.594 29.198 68.895 28.898 63.635 28 L 63.635 28 L 63.635 27.476 C 67.653 27.85 71.744 27.775 75.763 26.727 L 75.763 26.727 L 69.991 25.979 C 68.53 26.428 67.872 25.529 66.703 25.604 C 64.073 25.604 61.005 25.155 59.763 22.086 L 59.763 22.086 Z " fill-rule="evenodd" fill="rgb(23,89,105)"/><path d=" M 51.288 22.61 L 51.872 22.834 L 48.292 25.529 L 49.169 24.032 L 51.288 22.61 Z " fill-rule="evenodd" fill="rgb(67,126,142)"/><path d=" M 59.324 22.61 C 63.781 26.952 70.21 27.326 75.763 26.727 L 75.763 26.727 L 67.872 27.476 C 61.954 26.727 58.447 28.674 57.205 33.316 C 58.594 32.342 59.032 31.369 58.521 30.396 C 58.959 31.219 59.324 31.07 59.763 29.947 L 60.42 29.647 C 59.178 28.749 60.639 27.85 61.443 27.476 L 61.443 27.476 L 62.1 27.701 L 61.078 25.979 L 60.42 25.754 C 61.37 25.08 60.493 24.406 59.763 24.032 L 59.763 24.032 L 59.105 23.807 L 59.324 22.61 Z " fill-rule="evenodd" fill="rgb(47,121,140)"/><path d=" M 44.493 24.032 L 47.196 26.727 L 46.612 27.027 L 44.493 24.032 Z " fill-rule="evenodd" fill="rgb(64,125,143)"/><path d=" M 13.005 24.556 L 28.932 33.091 L 28.274 33.316 C 22.868 31.144 17.68 28.299 13.005 24.556 L 13.005 24.556 Z " fill-rule="evenodd" fill="rgb(23,89,105)"/><path d=" M 62.758 28 L 61.881 29.422 L 56.183 34.588 C 53.845 39.604 50.849 44.246 47.196 48.214 L 47.196 48.214 L 52.311 53.604 L 49.973 51.433 L 46.831 48.214 L 49.973 43.572 L 50.63 43.348 L 56.767 33.316 L 62.758 28 Z " fill-rule="evenodd" fill="rgb(77,136,154)"/><path d=" M 63.635 28 L 67.653 28.225 L 63.635 28.449 L 63.635 28 Z " fill-rule="evenodd" fill="rgb(74,135,153)"/><path d=" M 67.872 28 L 78.685 28.225 L 67.872 28.449 L 67.872 28 Z " fill-rule="evenodd" fill="rgb(67,126,142)"/><line x1="62.758" y1="28.449" x2="61.078" y2="30.92"/><path d=" M 63.196 28.449 L 65.096 28.674 C 63.635 28.824 62.247 29.422 61.443 30.92 L 61.443 30.92 L 63.196 28.449 Z " fill-rule="evenodd" fill="rgb(67,126,142)"/><line x1="60.201" y1="30.92" x2="58.082" y2="33.84"/><path d=" M 60.639 30.92 L 60.858 31.594 L 58.521 33.84 L 60.639 30.92 Z " fill-rule="evenodd" fill="rgb(67,126,142)"/><path d=" M 29.151 32.866 L 31.489 35.037 L 33.169 37.508 L 32.511 37.733 L 29.589 33.316 L 29.151 32.866 Z " fill-rule="evenodd" fill="rgb(77,136,154)"/><path d=" M 38.502 33.316 L 39.598 33.615 L 36.384 38.706 L 32.731 36.984 L 38.502 33.316 Z " fill-rule="evenodd" fill="rgb(47,121,140)"/><path d=" M 57.644 33.84 L 57.863 34.588 L 56.621 35.561 L 53.406 41.626 L 52.749 41.85 L 48.511 48.214 L 52.749 52.107 C 53.918 53.08 53.845 55.102 53.626 56.524 L 53.626 56.524 L 52.968 56.749 L 52.749 56.075 L 53.187 55.027 L 52.091 52.406 L 51.507 52.107 L 51.288 51.433 L 47.635 48.214 L 47.854 47.465 L 48.95 46.791 L 57.644 33.84 Z  M 31.269 36.759 C 31.927 38.032 33.169 38.706 34.484 38.93 L 34.484 38.93 L 33.826 39.23 L 31.05 37.508 L 31.269 36.759 Z " fill-rule="evenodd" fill="rgb(67,126,142)"/><path d=" M 33.388 37.733 L 36.164 38.93 L 35.507 38.706 C 34.849 38.781 33.461 38.93 33.388 37.733 L 33.388 37.733 Z " fill-rule="evenodd" fill="rgb(23,89,105)"/><path d=" M 36.822 39.679 L 37.406 42.824 L 36.603 42.824 L 37.041 46.791 L 35.726 47.765 L 36.822 39.679 Z " fill-rule="evenodd" fill="rgb(47,121,140)"/><line x1="52.091" y1="42.15" x2="49.169" y2="46.043"/><path d=" M 35.945 47.989 L 37.041 51.134 L 36.603 51.134 L 35.945 47.989 Z " fill-rule="evenodd" fill="rgb(77,136,154)"/><path d=" M 36.822 49.412 L 46.612 64.086 L 47.854 64.61 L 48.731 63.112 L 49.753 63.861 L 49.388 65.283 L 49.753 66.781 L 48.731 67.005 L 46.612 65.059 C 46.758 66.257 46.758 67.829 45.735 68.503 L 45.735 68.503 L 45.078 68.278 L 44.055 66.556 L 43.178 67.005 C 40.11 61.69 37.991 55.701 36.822 49.412 L 36.822 49.412 Z " fill-rule="evenodd" fill="rgb(47,121,140)"/><path d=" M 49.169 49.412 L 51.507 51.658 L 50.849 51.882 L 49.169 49.412 Z " fill-rule="evenodd" fill="rgb(74,135,153)"/><path d=" M 51.288 51.882 C 52.676 52.182 52.895 53.679 52.749 55.027 L 52.749 55.027 L 52.311 55.027 C 52.384 53.979 52.457 52.257 51.288 51.882 L 51.288 51.882 Z " fill-rule="evenodd" fill="rgb(64,125,143)"/><path d=" M 52.968 54.802 L 53.187 55.551 L 52.53 56.749 L 51.872 57.048 L 52.091 57.722 L 51.507 56.524 L 52.749 55.551 L 52.968 54.802 Z " fill-rule="evenodd" fill="rgb(74,135,153)"/><path d=" M 38.502 55.775 L 43.178 67.005 L 43.836 67.23 L 43.178 68.503 C 40.475 64.909 38.721 60.567 38.502 55.775 L 38.502 55.775 Z " fill-rule="evenodd" fill="rgb(23,89,105)"/><path d=" M 52.091 56.749 C 53.699 57.123 54.137 58.77 54.064 60.417 L 54.064 60.417 L 53.406 62.139 L 52.749 62.364 L 53.626 64.31 L 52.091 66.556 L 51.068 66.781 L 50.849 67.529 L 50.192 67.23 L 50.849 66.032 L 52.749 65.283 L 52.311 61.914 L 53.187 61.39 L 53.626 59.968 L 52.091 56.749 Z " fill-rule="evenodd" fill="rgb(67,126,142)"/><path d=" M 51.726 57.722 L 53.187 59.968 L 52.53 61.166 L 51.068 61.39 C 52.311 61.914 52.457 63.487 52.311 64.834 L 52.311 64.834 L 51.288 65.583 L 50.192 64.834 C 50.411 65.733 50.484 67.08 49.534 67.529 L 49.534 67.529 L 46.393 65.807 L 46.612 65.059 C 46.904 66.706 48.292 67.155 49.534 67.005 L 49.534 67.005 L 49.753 65.807 L 49.388 64.31 L 50.411 64.086 L 51.726 65.059 L 51.872 63.337 L 50.63 60.417 L 51.288 60.642 L 52.749 59.968 L 51.726 57.722 Z " fill-rule="evenodd" fill="rgb(77,136,154)"/><path d=" M 51.726 61.166 L 52.53 61.166 L 53.187 61.39 L 52.311 61.914 L 52.749 63.337 L 51.872 62.888 L 51.726 61.166 Z " fill-rule="evenodd" fill="rgb(74,135,153)"/><path d=" M 46.977 66.032 L 49.388 67.754 L 48.731 67.979 L 46.977 66.032 Z " fill-rule="evenodd" fill="rgb(64,125,143)"/><path d=" M 47.416 67.005 L 49.169 68.503 L 49.973 67.979 L 49.973 68.503 L 49.169 68.952 L 47.416 67.005 Z  M 44.055 67.529 L 45.297 69.476 L 46.393 69.251 L 46.977 67.979 L 47.196 68.727 C 47.05 69.701 46.32 70 45.516 70 C 45.297 70 45.078 70 44.858 69.925 L 44.858 69.925 L 44.055 68.503 L 43.397 68.727 L 44.055 67.529 Z " fill-rule="evenodd" fill="rgb(67,126,142)"/></g></g></svg>