<?xml version="1.0" encoding="UTF-8"?>
<!DOCTYPE svg PUBLIC "-//W3C//DTD SVG 1.1//EN" "http://www.w3.org/Graphics/SVG/1.1/DTD/svg11.dtd">
<!-- Creator: CorelDRAW X7 -->
<svg xmlns="http://www.w3.org/2000/svg" xml:space="preserve" width="38.1mm" height="32.5439mm" version="1.1" style="shape-rendering:geometricPrecision; text-rendering:geometricPrecision; image-rendering:optimizeQuality; fill-rule:evenodd; clip-rule:evenodd"
viewBox="0 0 1095 935"
 xmlns:xlink="http://www.w3.org/1999/xlink">
 <defs>
  <style type="text/css">
   <![CDATA[
    .fil4 {fill:none}
    .fil5 {fill:#175969}
    .fil1 {fill:#2F798C}
    .fil7 {fill:#407D8F}
    .fil0 {fill:#437E8E}
    .fil6 {fill:#4A8799}
    .fil2 {fill:#4D889A}
    .fil3 {fill:#81AABA}
   ]]>
  </style>
 </defs>
 <g id="Camada_x0020_1">
  <metadata id="CorelCorpID_0Corel-Layer"/>
  <path class="fil0" d="M166 2c5,-1 9,-2 13,-2 10,0 16,4 19,12 -21,-4 -34,0 -41,13l-3 9 -3 -9 15 -23zm41 13c19,-3 43,-4 55,16l0 0 -15 3c-10,1 -45,2 -40,-19l0 0z"/>
  <path class="fil1" d="M178 21c72,15 143,41 206,82l0 0 -38 3c-52,-33 -116,-37 -174,-32l0 0 -21 3c2,-22 10,-43 27,-56l0 0z"/>
  <path class="fil2" d="M213 28l55 16 -15 4c-10,0 -45,1 -40,-20l0 0z"/>
  <polygon class="fil0" points="148,41 151,51 140,83 151,129 140,123 134,64 "/>
  <path class="fil2" d="M277 48l49 22 -9 4c-11,-2 -45,-5 -40,-26l0 0zm-123 6l3 10 -6 13 6 32 -6 0 -5 -39 8 -16z"/>
  <path class="fil3" d="M160 74l12 0c57,-3 116,1 169,26l0 0 8 -4 -3 10c33,-8 54,-3 62,17 56,93 104,196 142,309 20,-32 52,-51 96,-55 -10,-8 -7,-15 9,-23 25,-48 76,-68 152,-59l5 26 21 17 -3 9 20 17 -26 36 -61 62 -73 120 -14 10 -35 52 75 78 -3 23 -17 -6 -3 16 29 46 -20 9 -9 -3c17,13 19,38 17,59l0 0 -8 3 -35 -26 -15 23 24 13 -3 10 -27 -23 3 -10c-15,2 -30,-4 -32,-23l0 0 -87 -143c-26,-2 -37,-25 -35,-52l0 0 12 -26c-12,-8 -9,-28 -6,-40l0 0 11 0 -11 -58 41 -65 -15 -4c-13,38 -48,48 -82,46l0 0 -46 -65 -20 -17 -3 -9 -15 -10 -3 -10 -14 -10 -3 -9 -38 -36 -3 -10 -32 -29 -3 -10 -9 -4c-34,-37 -61,-81 -81,-130l0 0 3 -10 -15 -3c-11,-16 -8,-38 -3,-55l0 0z"/>
  <path class="fil0" d="M358 74c83,28 154,86 195,172l0 0 9 17 9 3 26 36 14 10 9 16 9 3 -3 10 -102 -108 -9 -16 -8 -3 -9 -17c-36,-54 -83,-98 -140,-123l0 0z"/>
  <path class="fil2" d="M364 87c78,51 146,118 201,199l0 0 -131 -141c-27,-10 -60,-26 -70,-58l0 0z"/>
  <line class="fil4" x1="399" y1="100" x2="422" y2= "132" />
  <line class="fil4" x1="405" y1="100" x2="463" y2= "171" />
  <polygon class="fil2" points="160,119 181,162 163,149 "/>
  <path class="fil1" d="M411 126l160 166 3 10 72 75c-44,4 -76,23 -96,55 -41,-116 -88,-219 -139,-306zm-245 6l15 4 0 13 2 9 9 -3 0 13 9 16 9 -3 0 13 -3 10 -41 -72z"/>
  <polygon class="fil0" points="172,171 268,299 247,302 204,286 224,282 242,289 245,279 224,250 204,233 201,224 192,220 "/>
  <polygon class="fil2" points="183,171 256,266 210,220 "/>
  <line class="fil4" x1="469" y1="171" x2="539" y2= "256" />
  <polygon class="fil0" points="9,237 47,240 6,246 3,256 0,246 "/>
  <line class="fil4" x1="224" y1="237" x2="259" y2= "282" />
  <line class="fil4" x1="533" y1="237" x2="585" y2= "302" />
  <path class="fil5" d="M15 243c35,-3 75,0 101,29l0 0 -8 -3 -26 3 69 40 -8 3c-14,-15 -31,-25 -49,-31 -26,-9 -73,1 -88,-31l0 0 9 -10z"/>
  <path class="fil1" d="M20 250l56 16 -15 3c-10,0 -45,1 -41,-19l0 0z"/>
  <path class="fil6" d="M236 256l38 49 -9 3c12,-23 -13,-42 -29,-52l0 0z"/>
  <path class="fil1" d="M84 269c71,27 145,42 219,49l0 0 32 43 9 3 8 16 9 3 9 17 9 3 14 23 15 10 -15 3c-78,-32 -154,-71 -224,-121l0 0 -58 -32c-8,-1 -31,-2 -27,-17l0 0z"/>
  <path class="fil2" d="M265 276l26 36 -9 3c-15,-7 -25,-21 -17,-39l0 0z"/>
  <path class="fil0" d="M742 276l62 3c-29,-5 -66,-6 -85,23l0 0 12 -20 11 -6z"/>
  <path class="fil6" d="M742 282c22,-6 58,-16 73,10l0 0 -8 -3c-21,-7 -55,-17 -70,6l0 0 5 -13z"/>
  <path class="fil2" d="M748 289l56 3 -56 3 0 -6zm-174 6l69 66 9 -4 -14 10 -64 -72z"/>
  <path class="fil5" d="M818 295c29,37 76,43 117,39l0 0 160 23 -3 10c-71,23 -149,19 -221,7l0 0 0 -7c55,5 111,4 166,-10l0 0 -79 -10c-20,6 -29,-6 -45,-5 -36,0 -78,-6 -95,-47l0 0z"/>
  <polygon class="fil0" points="702,302 710,305 661,341 673,321 "/>
  <path class="fil1" d="M812 302c61,58 149,63 225,55l0 0 -108 10c-81,-10 -129,16 -146,78 19,-13 25,-26 18,-39 6,11 11,9 17,-6l9 -4c-17,-12 3,-24 14,-29l0 0 9 3 -14 -23 -9 -3c13,-9 1,-18 -9,-23l0 0 -9 -3 3 -16z"/>
  <polygon class="fil7" points="609,321 646,357 638,361 "/>
  <path class="fil5" d="M178 328l218 114 -9 3c-74,-29 -145,-67 -209,-117l0 0z"/>
  <path class="fil2" d="M859 374l-12 19 -78 69c-32,67 -73,129 -123,182l0 0 70 72 -32 -29 -43 -43 43 -62 9 -3 84 -134 82 -71z"/>
  <polygon class="fil6" points="871,374 926,377 871,380 "/>
  <polygon class="fil0" points="929,374 1077,377 929,380 "/>
  <line class="fil4" x1="859" y1="380" x2="836" y2= "413" />
  <path class="fil0" d="M865 380l26 3c-20,2 -39,10 -50,30l0 0 24 -33z"/>
  <line class="fil4" x1="824" y1="413" x2="795" y2= "452" />
  <polygon class="fil0" points="830,413 833,422 801,452 "/>
  <polygon class="fil2" points="399,439 431,468 454,501 445,504 405,445 "/>
  <polygon class="fil1" points="527,445 542,449 498,517 448,494 "/>
  <path class="fil0" d="M789 452l3 10 -17 13 -44 81 -9 3 -58 85 58 52c16,13 15,40 12,59l0 0 -9 3 -3 -9 6 -14 -15 -35 -8 -4 -3 -9 -50 -43 3 -10 15 -9 119 -173zm-361 39c9,17 26,26 44,29l0 0 -9 4 -38 -23 3 -10z"/>
  <path class="fil5" d="M457 504l38 16 -9 -3c-9,1 -28,3 -29,-13l0 0z"/>
  <polygon class="fil1" points="504,530 512,572 501,572 507,625 489,638 "/>
  <line class="fil4" x1="713" y1="563" x2="673" y2= "615" />
  <polygon class="fil2" points="492,641 507,683 501,683 "/>
  <path class="fil1" d="M504 660l134 196 17 7 12 -20 14 10 -5 19 5 20 -14 3 -29 -26c2,16 2,37 -12,46l0 0 -9 -3 -14 -23 -12 6c-42,-71 -71,-151 -87,-235l0 0z"/>
  <polygon class="fil6" points="673,660 705,690 696,693 "/>
  <path class="fil7" d="M702 693c19,4 22,24 20,42l0 0 -6 0c1,-14 2,-37 -14,-42l0 0z"/>
  <polygon class="fil6" points="725,732 728,742 719,758 710,762 713,771 705,755 722,742 "/>
  <path class="fil5" d="M527 745l64 150 9 3 -9 17c-37,-48 -61,-106 -64,-170l0 0z"/>
  <path class="fil0" d="M713 758c22,5 28,27 27,49l0 0 -9 23 -9 3 12 26 -21 30 -14 3 -3 10 -9 -4 9 -16 26 -10 -6 -45 12 -7 6 -19 -21 -43z"/>
  <path class="fil2" d="M708 771l20 30 -9 16 -20 3c17,7 19,28 17,46l0 0 -14 10 -15 -10c3,12 4,30 -9,36l0 0 -43 -23 3 -10c4,22 23,28 40,26l0 0 3 -16 -5 -20 14 -3 18 13 2 -23 -17 -39 9 3 20 -9 -14 -30z"/>
  <polygon class="fil6" points="708,817 719,817 728,820 716,827 722,846 710,840 "/>
  <polygon class="fil7" points="643,882 676,905 667,908 "/>
  <path class="fil0" d="M649 895l24 20 11 -7 0 7 -11 6 -24 -26zm-46 7l17 26 15 -3 8 -17 3 10c-2,13 -12,17 -23,17 -3,0 -6,0 -9,-1l0 0 -11 -19 -9 3 9 -16z"/>
 </g>
</svg>
